<svg width="18" height="15" viewBox="0 0 18 15" fill="none" xmlns="http://www.w3.org/2000/svg">
<path fill-rule="evenodd" clip-rule="evenodd" d="M4.5 4C5.03043 4 5.53914 3.78929 5.91421 3.41421C6.28929 3.03914 6.5 2.53043 6.5 2C6.5 1.46957 6.28929 0.960859 5.91421 0.585786C5.53914 0.210714 5.03043 0 4.5 0C3.96957 0 3.46086 0.210714 3.08579 0.585786C2.71071 0.960859 2.5 1.46957 2.5 2C2.5 2.53043 2.71071 3.03914 3.08579 3.41421C3.46086 3.78929 3.96957 4 4.5 4V4ZM4.5 3C4.76522 3 5.01957 2.89464 5.20711 2.70711C5.39464 2.51957 5.5 2.26522 5.5 2C5.5 1.73478 5.39464 1.48043 5.20711 1.29289C5.01957 1.10536 4.76522 1 4.5 1C4.23478 1 3.98043 1.10536 3.79289 1.29289C3.60536 1.48043 3.5 1.73478 3.5 2C3.5 2.26522 3.60536 2.51957 3.79289 2.70711C3.98043 2.89464 4.23478 3 4.5 3Z" fill="white"/>
<path d="M6.134 6.701L3.284 5.5L6.134 6.702V6.701Z" fill="white"/>
<path d="M6.13403 6.70092L6.22003 6.73742L6.13403 6.60742V6.70092Z" fill="white"/>
<path fill-rule="evenodd" clip-rule="evenodd" d="M1.91003 4.995C2.19153 4.7815 2.66603 4.5 3.28453 4.5H5.78253C6.46403 4.5 6.97253 4.859 7.22003 5.059C7.51003 5.2935 7.76103 5.5755 7.95503 5.8165C8.26453 6.1995 8.55003 6.634 8.71303 6.8805L8.71653 6.8855C8.75603 6.9455 8.78603 6.9915 8.80853 7.0245C8.91203 7.177 8.98353 7.3425 9.02503 7.5115C9.06153 7.3175 9.13803 7.128 9.25753 6.9545C9.30703 6.883 9.36653 6.7935 9.43603 6.6895L9.44153 6.6805C9.63153 6.3945 9.88803 6.009 10.1415 5.6935C10.3215 5.469 10.5575 5.205 10.843 4.9865C11.1145 4.7785 11.577 4.5 12.182 4.5H14.5965C15.263 4.5 15.7585 4.855 15.9965 5.0495C16.2775 5.279 16.5195 5.5545 16.707 5.7895C17.0055 6.1635 17.282 6.588 17.4385 6.8285L17.4405 6.832L17.442 6.834L17.445 6.8385C17.482 6.895 17.51 6.9385 17.531 6.9695C17.6815 7.19392 17.7667 7.45577 17.777 7.72579C17.7872 7.9958 17.7223 8.26336 17.5893 8.49858C17.4563 8.7338 17.2605 8.92743 17.0238 9.05782C16.7872 9.18822 16.5189 9.25025 16.249 9.237C16.393 9.7585 16.5315 10.2325 16.6315 10.5665C16.7885 11.093 16.473 11.662 15.9155 11.7785C14.1105 12.156 12.8335 12.144 10.8935 11.7735C10.761 11.7478 10.6353 11.6944 10.5248 11.6168C10.4143 11.5392 10.3215 11.4391 10.2523 11.3232C10.1831 11.2072 10.1392 11.078 10.1233 10.9439C10.1075 10.8098 10.1202 10.6739 10.1605 10.545C10.2635 10.2135 10.4045 9.749 10.5485 9.236C10.2226 9.25686 9.89919 9.16719 9.63053 8.9815C9.33766 8.78022 9.12879 8.47849 9.04353 8.1335C9.00824 8.33002 8.93396 8.51749 8.82507 8.68486C8.71618 8.85222 8.5749 8.9961 8.40953 9.108C8.2279 9.23152 8.02132 9.31356 7.80443 9.3483C7.58754 9.38304 7.36566 9.36962 7.15453 9.309L7.15753 9.334L7.49103 12.334C7.53483 12.7227 7.42509 13.1131 7.18518 13.422C6.94528 13.7309 6.5942 13.9339 6.20679 13.9877C5.81937 14.0415 5.42627 13.9419 5.11127 13.71C4.79627 13.4781 4.5843 13.1324 4.52053 12.7465L4.50003 12.624L4.48003 12.7465C4.41887 13.1348 4.20774 13.4836 3.89205 13.7178C3.57637 13.952 3.18136 14.0529 2.79202 13.9989C2.40267 13.9448 2.05011 13.7401 1.81017 13.4287C1.57023 13.1174 1.4621 12.7243 1.50903 12.334L1.76803 10.0065L1.79253 9.338C1.4991 9.39633 1.19492 9.36559 0.919096 9.24971C0.643269 9.13384 0.408394 8.93813 0.244654 8.68774C0.0809148 8.43734 -0.0042077 8.14371 0.000225814 7.84456C0.00465933 7.54542 0.0984463 7.25443 0.269534 7.009C0.318534 6.938 0.377534 6.851 0.446034 6.749L0.460034 6.7285C0.656034 6.436 0.921534 6.041 1.18403 5.7185C1.37103 5.4885 1.61553 5.2175 1.91003 4.9945V4.995ZM3.28503 5.5C2.97603 5.5 2.71303 5.6415 2.51403 5.792C2.31103 5.946 2.12503 6.147 1.96053 6.349C1.73153 6.631 1.49103 6.9875 1.28953 7.2875L1.28253 7.2975C1.21303 7.401 1.14703 7.4995 1.09053 7.581C1.05053 7.63472 1.02172 7.69594 1.00583 7.76101C0.989934 7.82608 0.987278 7.89368 0.998016 7.9598C1.00875 8.02591 1.03267 8.0892 1.06834 8.1459C1.10401 8.20259 1.1507 8.25154 1.20566 8.28984C1.26061 8.32814 1.3227 8.35501 1.38824 8.36885C1.45378 8.38269 1.52143 8.38322 1.58718 8.37041C1.65292 8.3576 1.71543 8.33171 1.77097 8.29428C1.82652 8.25684 1.87398 8.20863 1.91053 8.1525L2.88853 6.7475L2.76653 10.08L2.50353 12.445C2.49009 12.574 2.52729 12.7032 2.60729 12.8053C2.68729 12.9073 2.80383 12.9743 2.9323 12.9921C3.06077 13.0099 3.19113 12.9771 3.29584 12.9005C3.40056 12.824 3.47145 12.7098 3.49353 12.582L3.99053 9.601L4.50353 9.487L5.01153 9.606L5.50753 12.582C5.52945 12.71 5.60032 12.8245 5.70514 12.9012C5.80996 12.9779 5.94051 13.0108 6.06915 12.9929C6.19779 12.975 6.31444 12.9078 6.39439 12.8054C6.47435 12.7031 6.51134 12.5736 6.49753 12.4445L6.16403 9.4445C6.16127 9.42021 6.15676 9.39614 6.15053 9.3725L6.13453 9.31V6.702L6.22103 6.7385L7.05103 7.9935L7.15403 8.1475C7.22849 8.25723 7.34349 8.33289 7.47374 8.35784C7.60398 8.38278 7.7388 8.35496 7.84853 8.2805C7.95827 8.20604 8.03393 8.09104 8.05887 7.9608C8.08381 7.83055 8.05599 7.69573 7.98153 7.586L7.88453 7.44L6.22103 6.7385L6.22053 6.7375L7.88353 7.4385L7.88153 7.436C7.71703 7.186 7.45403 6.787 7.17753 6.444C7.00303 6.228 6.80353 6.0075 6.59253 5.837C6.39553 5.678 6.11353 5.5 5.78303 5.5H3.28503V5.5ZM11.427 5.7485C11.62 5.601 11.878 5.46 12.1825 5.46H14.597C14.923 5.46 15.1995 5.6375 15.39 5.793C15.595 5.9605 15.7885 6.1765 15.957 6.388C16.225 6.7235 16.4795 7.114 16.6385 7.358L16.64 7.3605C16.676 7.4155 16.709 7.466 16.735 7.5045C16.8088 7.6139 16.8361 7.74814 16.811 7.87768C16.7858 8.00722 16.7102 8.12145 16.6008 8.19525C16.4914 8.26905 16.3571 8.29636 16.2276 8.27118C16.0981 8.24601 15.9838 8.1704 15.91 8.061C15.8466 7.96781 15.7524 7.89991 15.644 7.86919C15.5356 7.83848 15.4198 7.8469 15.3169 7.89299C15.214 7.93909 15.1307 8.01991 15.0814 8.12129C15.0322 8.22267 15.0202 8.33816 15.0475 8.4475C15.276 9.3555 15.5475 10.29 15.712 10.8405C14.0495 11.1875 12.9035 11.1795 11.077 10.8315L11.0775 10.83C11.329 10.0256 11.5584 9.21445 11.7655 8.3975C11.7926 8.2883 11.7804 8.17308 11.7311 8.07195C11.6818 7.97083 11.5986 7.89021 11.496 7.84419C11.3933 7.79816 11.2778 7.78965 11.1695 7.82014C11.0612 7.85063 10.9671 7.91818 10.9035 8.011L10.8675 8.064C10.7922 8.17169 10.6774 8.24522 10.5481 8.26854C10.4188 8.29185 10.2855 8.26306 10.1773 8.18844C10.0691 8.11382 9.99489 7.99944 9.97076 7.87027C9.94664 7.7411 9.9746 7.60763 10.0485 7.499C10.103 7.42 10.167 7.324 10.234 7.223L10.2365 7.2195C10.432 6.925 10.6665 6.573 10.89 6.295C11.049 6.097 11.2295 5.9 11.427 5.7485V5.7485Z" fill="white"/>
<path fill-rule="evenodd" clip-rule="evenodd" d="M13.5 4C14.0304 4 14.5391 3.78929 14.9142 3.41421C15.2893 3.03914 15.5 2.53043 15.5 2C15.5 1.46957 15.2893 0.960859 14.9142 0.585786C14.5391 0.210714 14.0304 0 13.5 0C12.9696 0 12.4609 0.210714 12.0858 0.585786C11.7107 0.960859 11.5 1.46957 11.5 2C11.5 2.53043 11.7107 3.03914 12.0858 3.41421C12.4609 3.78929 12.9696 4 13.5 4ZM13.5 3C13.7652 3 14.0196 2.89464 14.2071 2.70711C14.3946 2.51957 14.5 2.26522 14.5 2C14.5 1.73478 14.3946 1.48043 14.2071 1.29289C14.0196 1.10536 13.7652 1 13.5 1C13.2348 1 12.9804 1.10536 12.7929 1.29289C12.6054 1.48043 12.5 1.73478 12.5 2C12.5 2.26522 12.6054 2.51957 12.7929 2.70711C12.9804 2.89464 13.2348 3 13.5 3Z" fill="white"/>
<path d="M11.9 13.9933C11.72 13.9691 11.5549 13.8804 11.4354 13.7437C11.3158 13.6069 11.25 13.4315 11.25 13.2498V12.6318C11.8004 12.7029 12.3539 12.7486 12.9085 12.7688L12.7235 13.4473C12.6757 13.6226 12.5659 13.7745 12.4146 13.8749C12.2632 13.9753 12.0805 14.0174 11.9005 13.9933H11.9Z" fill="white"/>
<path d="M14.2766 13.4475L14.0906 12.7665C14.6456 12.7438 15.1993 12.6966 15.7501 12.625V13.25C15.7501 13.4316 15.6841 13.6071 15.5645 13.7438C15.4449 13.8805 15.2797 13.9691 15.0997 13.9932C14.9197 14.0174 14.737 13.9754 14.5856 13.875C14.4342 13.7746 14.3244 13.6227 14.2766 13.4475Z" fill="white"/>
</svg>
