<svg width="24" height="24" viewBox="0 0 24 24" fill="none" xmlns="http://www.w3.org/2000/svg">
<path d="M13.5 17.25H12V15.75C11.9994 15.1534 11.7622 14.5815 11.3403 14.1597C10.9185 13.7378 10.3466 13.5006 9.75 13.5H6.75C6.15345 13.5006 5.5815 13.7378 5.15967 14.1597C4.73784 14.5815 4.5006 15.1534 4.5 15.75V17.25H3V15.75C3.00119 14.7558 3.39666 13.8027 4.09966 13.0997C4.80267 12.3967 5.7558 12.0012 6.75 12H9.75C10.7442 12.0012 11.6973 12.3967 12.4003 13.0997C13.1033 13.8027 13.4988 14.7558 13.5 15.75V17.25Z" fill="#768471"/>
<path d="M8.25 4.5C8.69501 4.5 9.13002 4.63196 9.50004 4.87919C9.87005 5.12643 10.1584 5.47783 10.3287 5.88896C10.499 6.3001 10.5436 6.7525 10.4568 7.18895C10.37 7.62541 10.1557 8.02632 9.84099 8.34099C9.52632 8.65566 9.12541 8.86995 8.68896 8.95677C8.2525 9.04358 7.8001 8.99903 7.38896 8.82873C6.97783 8.65843 6.62643 8.37004 6.3792 8.00003C6.13196 7.63002 6 7.19501 6 6.75C6 6.15326 6.23705 5.58097 6.65901 5.15901C7.08097 4.73705 7.65327 4.5 8.25 4.5ZM8.25 3C7.50832 3 6.7833 3.21993 6.16661 3.63199C5.54993 4.04404 5.06928 4.62971 4.78545 5.31494C4.50162 6.00016 4.42736 6.75416 4.57206 7.48159C4.71675 8.20902 5.0739 8.8772 5.59835 9.40165C6.1228 9.9261 6.79098 10.2833 7.51841 10.4279C8.24584 10.5726 8.99984 10.4984 9.68507 10.2145C10.3703 9.93072 10.956 9.45007 11.368 8.83339C11.7801 8.2167 12 7.49168 12 6.75C12 5.75544 11.6049 4.80161 10.9017 4.09835C10.1984 3.39509 9.24456 3 8.25 3Z" fill="#768471"/>
<path d="M1.5 19.5H22.5V21H1.5V19.5Z" fill="#768471"/>
<path d="M20.4773 5.99956C20.2105 5.99959 19.9464 6.0531 19.7006 6.15693C19.4548 6.26075 19.2323 6.41279 19.0463 6.60406L18.75 6.90706L18.4538 6.60331C18.2677 6.41208 18.0452 6.26008 17.7995 6.15629C17.5537 6.0525 17.2896 5.99902 17.0228 5.99902C16.756 5.99902 16.4919 6.0525 16.2461 6.15629C16.0003 6.26008 15.7778 6.41208 15.5918 6.60331C15.2124 6.99503 15.0002 7.51898 15.0002 8.06431C15.0002 8.60964 15.2124 9.13359 15.5918 9.52531L18.75 12.7496L21.9075 9.52606C22.2869 9.13434 22.4991 8.61039 22.4991 8.06506C22.4991 7.51973 22.2869 6.99578 21.9075 6.60406C21.7217 6.41297 21.4994 6.26104 21.2539 6.15722C21.0084 6.0534 20.7446 5.99979 20.478 5.99956H20.4773Z" fill="#768471"/>
</svg>
