<svg width="24" height="24" viewBox="0 0 24 24" fill="none" xmlns="http://www.w3.org/2000/svg">
<path d="M10.5 6C10.9945 6 11.4778 6.14662 11.8889 6.42133C12.3 6.69603 12.6205 7.08648 12.8097 7.54329C12.9989 8.00011 13.0484 8.50277 12.952 8.98773C12.8555 9.47268 12.6174 9.91813 12.2678 10.2678C11.9181 10.6174 11.4727 10.8555 10.9877 10.952C10.5028 11.0484 10.0001 10.9989 9.54329 10.8097C9.08648 10.6205 8.69603 10.3 8.42133 9.88892C8.14662 9.4778 8 8.99445 8 8.5C8 7.83696 8.26339 7.20107 8.73223 6.73223C9.20108 6.26339 9.83696 6 10.5 6ZM10.5 5C9.80777 5 9.13108 5.20527 8.55551 5.58986C7.97993 5.97444 7.53133 6.52107 7.26642 7.16061C7.00152 7.80015 6.9322 8.50388 7.06725 9.18282C7.2023 9.86175 7.53564 10.4854 8.02513 10.9749C8.51461 11.4644 9.13825 11.7977 9.81719 11.9327C10.4961 12.0678 11.1999 11.9985 11.8394 11.7336C12.4789 11.4687 13.0256 11.0201 13.4101 10.4445C13.7947 9.86892 14 9.19223 14 8.5C14 7.57174 13.6313 6.6815 12.9749 6.02513C12.3185 5.36875 11.4283 5 10.5 5Z" fill="#768471"/>
<path d="M15 19H14.1V16.5C14.1 15.837 13.8629 15.2011 13.441 14.7322C13.019 14.2634 12.4467 14 11.85 14H9.15C8.55326 14 7.98097 14.2634 7.55901 14.7322C7.13705 15.2011 6.9 15.837 6.9 16.5V19H6V16.5C6 15.5717 6.33187 14.6815 6.92261 14.0251C7.51335 13.3687 8.31457 13 9.15 13H11.85C12.6854 13 13.4866 13.3687 14.0774 14.0251C14.6681 14.6815 15 15.5717 15 16.5V19Z" fill="#768471"/>
<path d="M15 9H20V10H15V9Z" fill="#768471"/>
<path d="M15 7H20V8H15V7Z" fill="#768471"/>
<path d="M15 11H19V12H15V11Z" fill="#768471"/>
</svg>
